<svg   xmlns="http://www.w3.org/2000/svg" viewBox="0 0 512 512"

 fill="#ff8a28"  stroke="#ff8a28">

                <g>
                  <g>
                    <path
                      d="M256,0C114.84,0,0,114.84,0,256s114.84,256,256,256s256-114.84,256-256S397.16,0,256,0z M256,474.537    c-120.501,0-218.537-98.036-218.537-218.537S135.499,37.463,256,37.463S474.537,135.499,474.537,256S376.501,474.537,256,474.537z    "
                    />
                  </g>
                </g>
                <g>
                  <g>
                    <path
                      d="M299.707,324.683c0-27.543-22.408-49.951-49.951-49.951h-12.488v37.463h12.488c6.886,0,12.488,5.602,12.488,12.488    c0,3.445-1.354,5.97-2.49,7.483l-8.449,11.249l8.449,11.249c1.136,1.512,2.49,4.039,2.49,7.483    c0,6.886-5.602,12.488-12.488,12.488h-12.488v37.463h12.488c27.543,0,49.951-22.408,49.951-49.951    c0-6.516-1.234-12.839-3.623-18.732C298.474,337.522,299.707,331.199,299.707,324.683z"
                    />
                  </g>
                </g>
                <g>
                  <g>
                    <path
                      d="M187.317,174.829c-13.772,0-24.976,11.204-24.976,24.976s11.204,24.976,24.976,24.976    c13.767,0,24.971-11.202,24.976-24.976C212.293,186.033,201.091,174.829,187.317,174.829z"
                    />
                  </g>
                </g>
                <g>
                  <g>
                    <path
                      d="M324.683,174.829c-13.772,0-24.976,11.204-24.976,24.976s11.204,24.976,24.976,24.976    c13.767,0,24.971-11.202,24.976-24.976C349.659,186.033,338.457,174.829,324.683,174.829z"
                    />
                  </g>
                </g>
              </svg>